<svg width="24" height="25" viewBox="0 0 24 25" fill="none" xmlns="http://www.w3.org/2000/svg">
<path d="M20.4848 3.97755C18.2172 1.70988 15.2071 0.462402 12 0.462402C8.79293 0.462402 5.78283 1.70988 3.51515 3.97755C1.24747 6.24523 0 9.25533 0 12.4624C0 15.6695 1.24747 18.6796 3.51515 20.9473C5.78283 23.2149 8.79293 24.4624 12 24.4624C15.2071 24.4624 18.2172 23.2149 20.4848 20.9473C22.7525 18.6796 24 15.6695 24 12.4624C24 9.25533 22.7525 6.24523 20.4848 3.97755ZM19.5202 19.9826C17.5101 21.9927 14.8384 23.0988 12 23.0988C9.16162 23.0988 6.4899 21.9927 4.4798 19.9826C0.333333 15.8361 0.333333 9.08867 4.4798 4.9422C6.4899 2.9321 9.16162 1.82604 12 1.82604C14.8384 1.82604 17.5101 2.9321 19.5202 4.9422C23.6667 9.08867 23.6667 15.8361 19.5202 19.9826Z" fill="white"/>
<path d="M17.2877 7.17463C17.0201 6.90696 16.5908 6.90696 16.3231 7.17463L11.9999 11.4979L7.67663 7.17463C7.40896 6.90696 6.97966 6.90696 6.71199 7.17463C6.44431 7.44231 6.44431 7.8716 6.71199 8.13928L11.0352 12.4625L6.71199 16.7857C6.44431 17.0534 6.44431 17.4827 6.71199 17.7504C6.8433 17.8817 7.02007 17.9524 7.19179 17.9524C7.3635 17.9524 7.54027 17.8868 7.67158 17.7504L11.9948 13.4272L16.318 17.7504C16.4494 17.8817 16.6261 17.9524 16.7978 17.9524C16.9746 17.9524 17.1463 17.8868 17.2776 17.7504C17.5453 17.4827 17.5453 17.0534 17.2776 16.7857L12.9645 12.4625L17.2877 8.13928C17.5554 7.8716 17.5554 7.44231 17.2877 7.17463Z" fill="white"/>
</svg>
