<svg width="35" height="35" viewBox="0 0 35 35" fill="none" xmlns="http://www.w3.org/2000/svg">
<g clip-path="url(#clip0_83_473)">
<path d="M29.4994 17.4999C29.4994 14.2929 28.253 11.2823 25.9853 9.01458C23.7175 6.74684 20.707 5.50047 17.5 5.50047C14.293 5.50047 11.2825 6.74684 9.01472 9.01458C6.74698 11.2823 5.50061 14.2929 5.50061 17.4999C5.50061 20.7068 6.74698 23.7174 9.01472 25.9851C11.2825 28.2529 14.293 29.4992 17.5 29.4992C20.707 29.4992 23.7175 28.2529 25.9853 25.9851C28.253 23.7174 29.4994 20.7068 29.4994 17.4999ZM17.5 28.135C14.6573 28.135 11.986 27.0279 9.97896 25.0209C7.97191 23.0139 6.86483 20.3426 6.86483 17.4999C6.86483 11.6359 11.636 6.86469 17.5 6.86469C20.3427 6.86469 23.014 7.97177 25.021 9.97881C27.0281 11.9859 28.1352 14.6571 28.1352 17.4999C28.1352 23.3638 23.364 28.135 17.5 28.135Z" fill="white"/>
<path d="M24.9782 17.4999C24.9782 17.1213 24.6746 16.8178 24.2961 16.8178L18.1821 16.8178L18.1821 10.7038C18.1821 10.3253 17.8786 10.0217 17.5 10.0217C17.1214 10.0217 16.8179 10.3253 16.8179 10.7038L16.8179 16.8178L10.7039 16.8178C10.3254 16.8178 10.0218 17.1213 10.0218 17.4999C10.0218 17.6856 10.0968 17.8606 10.2182 17.982C10.3397 18.1034 10.5111 18.182 10.7003 18.1784L16.8143 18.1784L16.8143 24.2924C16.8143 24.4781 16.8893 24.6531 17.0107 24.7745C17.1357 24.8995 17.3036 24.9745 17.4929 24.9709C17.8714 24.9709 18.175 24.6674 18.175 24.2888L18.1821 18.182L24.2961 18.182C24.6746 18.182 24.9782 17.8784 24.9782 17.4999Z" fill="white"/>
</g>
<defs>
<clipPath id="clip0_83_473">
<rect width="24" height="24" fill="white" transform="translate(17.5 0.529297) rotate(45)"/>
</clipPath>
</defs>
</svg>
