<svg width="15" height="14" viewBox="0 0 15 14" fill="none" xmlns="http://www.w3.org/2000/svg">
<g clip-path="url(#clip0_83_1659)">
<path d="M7.665 0C3.79902 0 0.665039 3.13398 0.665039 6.99996C0.665039 10.8659 3.79902 14 7.665 14C11.531 14 14.6651 10.8659 14.6651 6.99996C14.6607 3.13577 11.5293 0.00435789 7.665 0ZM7.665 13.3C4.18559 13.3 1.365 10.4794 1.365 6.99996C1.365 3.52055 4.18559 0.699957 7.665 0.699957C11.1444 0.699957 13.965 3.52055 13.965 6.99996C13.961 10.4777 11.1427 13.296 7.665 13.3Z" fill="white"/>
<path d="M6.84523 4.28649C6.69963 4.15921 6.47853 4.17408 6.35125 4.31956C6.2241 4.46516 6.23897 4.68626 6.38445 4.81354L8.88332 6.99993L6.38432 9.18645C6.23871 9.31372 6.22397 9.53482 6.35112 9.6803C6.4784 9.8259 6.6995 9.84077 6.8451 9.7135L9.64506 7.26345C9.72107 7.19706 9.76465 7.10093 9.76465 6.99993C9.76465 6.89893 9.72107 6.80292 9.64506 6.7364L6.84523 4.28649Z" fill="white"/>
</g>
<defs>
<clipPath id="clip0_83_1659">
<rect width="14" height="14" fill="white" transform="translate(0.665039)"/>
</clipPath>
</defs>
</svg>
